HIERARCHY
ROOT Hips
{
	OFFSET 0.00000 0.00000 0.00000
	CHANNELS 6 Xposition Yposition Zposition Zrotation Yrotation Xrotation 
	JOINT LHipJoint
	{
		OFFSET 0 0 0
		CHANNELS 3 Zrotation Yrotation Xrotation
		JOINT LeftUpLeg
		{
			OFFSET 1.28858 -1.83292 1.03970
			CHANNELS 3 Zrotation Yrotation Xrotation
			JOINT LeftLeg
			{
				OFFSET 2.47846 -6.80952 0.00000
				CHANNELS 3 Zrotation Yrotation Xrotation
				JOINT LeftFoot
				{
					OFFSET 2.75274 -7.56311 0.00000
					CHANNELS 3 Zrotation Yrotation Xrotation
					JOINT LeftToeBase
					{
						OFFSET 0.12848 -0.35301 1.68223
						CHANNELS 3 Zrotation Yrotation Xrotation
						End Site
						{
							OFFSET 0.00000 -0.00000 0.87311
						}
					}
				}
			}
		}
	}
	JOINT RHipJoint
	{
		OFFSET 0 0 0
		CHANNELS 3 Zrotation Yrotation Xrotation
		JOINT RightUpLeg
		{
			OFFSET -1.31183 -1.83292 1.03970
			CHANNELS 3 Zrotation Yrotation Xrotation
			JOINT RightLeg
			{
				OFFSET -2.44740 -6.72417 0.00000
				CHANNELS 3 Zrotation Yrotation Xrotation
				JOINT RightFoot
				{
					OFFSET -2.67343 -7.34519 0.00000
					CHANNELS 3 Zrotation Yrotation Xrotation
					JOINT RightToeBase
					{
						OFFSET -0.16914 -0.46471 1.77626
						CHANNELS 3 Zrotation Yrotation Xrotation
						End Site
						{
							OFFSET -0.00000 -0.00000 0.92777
						}
					}
				}
			}
		}
	}
	JOINT LowerBack
	{
		OFFSET 0 0 0
		CHANNELS 3 Zrotation Yrotation Xrotation
		JOINT Spine
		{
			OFFSET 0.01249 2.14252 0.03842
			CHANNELS 3 Zrotation Yrotation Xrotation
			JOINT Spine1
			{
				OFFSET -0.02957 2.14199 -0.03751
				CHANNELS 3 Zrotation Yrotation Xrotation
				JOINT Neck
				{
					OFFSET 0 0 0
					CHANNELS 3 Zrotation Yrotation Xrotation
					JOINT Neck1
					{
						OFFSET -0.01678 1.65709 -0.05476
						CHANNELS 3 Zrotation Yrotation Xrotation
						JOINT Head
						{
							OFFSET 0.07912 1.58331 -0.11843
							CHANNELS 3 Zrotation Yrotation Xrotation
							End Site
							{
								OFFSET 0.03298 1.73940 -0.04271
							}
						}
					}
				}
				JOINT LeftShoulder
				{
					OFFSET 0 0 0
					CHANNELS 3 Zrotation Yrotation Xrotation
					JOINT LeftArm
					{
						OFFSET 3.39556 1.16496 0.08673
						CHANNELS 3 Zrotation Yrotation Xrotation
						JOINT LeftForeArm
						{
							OFFSET 5.23910 -0.00000 -0.00000
							CHANNELS 3 Zrotation Yrotation Xrotation
							JOINT LeftHand
							{
								OFFSET 3.31467 -0.00000 0.00000
								CHANNELS 3 Zrotation Yrotation Xrotation
								JOINT LeftFingerBase
								{
									OFFSET 0 0 0
									CHANNELS 3 Zrotation Yrotation Xrotation
									JOINT LeftHandIndex1
									{
										OFFSET 0.96590 -0.00000 0.00000
										CHANNELS 3 Zrotation Yrotation Xrotation
										End Site
										{
											OFFSET 0.77873 -0.00000 0.00000
										}
									}
								}
								JOINT LThumb
								{
									OFFSET 0 0 0
									CHANNELS 3 Zrotation Yrotation Xrotation
									End Site
									{
										OFFSET 0.79062 -0.00000 0.79062
									}
								}
							}
						}
					}
				}
				JOINT RightShoulder
				{
					OFFSET 0 0 0
					CHANNELS 3 Zrotation Yrotation Xrotation
					JOINT RightArm
					{
						OFFSET -3.27193 1.31331 0.33940
						CHANNELS 3 Zrotation Yrotation Xrotation
						JOINT RightForeArm
						{
							OFFSET -5.30252 -0.00000 0.00000
							CHANNELS 3 Zrotation Yrotation Xrotation
							JOINT RightHand
							{
								OFFSET -3.67875 -0.00000 0.00000
								CHANNELS 3 Zrotation Yrotation Xrotation
								JOINT RightFingerBase
								{
									OFFSET 0 0 0
									CHANNELS 3 Zrotation Yrotation Xrotation
									JOINT RightHandIndex1
									{
										OFFSET -0.59481 -0.00000 0.00000
										CHANNELS 3 Zrotation Yrotation Xrotation
										End Site
										{
											OFFSET -0.47955 -0.00000 0.00000
										}
									}
								}
								JOINT RThumb
								{
									OFFSET 0 0 0
									CHANNELS 3 Zrotation Yrotation Xrotation
									End Site
									{
										OFFSET -0.48687 -0.00000 0.48687
									}
								}
							}
						}
					}
				}
			}
		}
	}
}
MOTION
Frames: 12
Frame Time: .0083333
10.1937 21.5015 -16.5617 -1.4595 -0.8871 10.8722 0.0000 0.0000 0.0000 -15.7643 -3.7223 1.8964 0.1933 2.8313 7.8094 0.6081 -10.4377 -14.6974 0.3948 4.0342 11.1729 0.0000 0.0000 0.0000 19.3525 4.5506 6.3118 -0.0022 -0.3036 0.8342 -1.4504 0.7485 -22.5507 -0.8150 -5.7608 16.0918 1.8218 0.7313 -5.8830 -1.3864 0.8872 -5.9288 -2.4213 0.3505 -2.7732 -0.2393 -1.7615 -0.0117 2.2269 -2.5607 10.1801 0.6912 -1.2025 3.3042 0.0000 0.0000 0.0000 64.2809 -37.4322 -81.4730 9.9684 -16.6901 -1.4659 -0.0000 -0.0000 8.1219 15.2584 -21.1746 -5.6274 -7.1250 0.0000 -0.0000 -8.4952 8.2985 7.2626 0.0000 0.0000 0.0000 -55.3534 34.6347 -97.6695 -8.2812 14.0076 -1.0191 0.0000 0.0000 20.7431 -21.4710 -19.5678 7.5045 7.1250 -0.0000 -0.0000 6.9008 -50.7574 -0.9830
10.1979 21.5349 -16.5658 -1.5160 -0.8544 11.3773 0.0000 0.0000 0.0000 -15.6449 -3.9716 0.9692 0.2239 3.0459 8.4065 0.5724 -10.0993 -14.2493 0.4143 4.1317 11.4475 0.0000 0.0000 0.0000 19.2818 4.6699 5.6047 -0.0032 -0.3661 1.0060 -1.3768 0.7233 -21.9697 -0.9266 -6.1323 17.1688 1.8502 0.6940 -5.4805 -1.3087 0.8441 -5.6574 -2.3605 0.3330 -2.7169 -0.3822 -1.7364 -0.4801 2.2472 -2.5291 10.3449 0.7202 -1.1866 3.4523 -0.0000 -0.0000 0.0000 64.1737 -37.0810 -81.5092 9.9184 -16.6118 -1.4515 -0.0000 -0.0000 8.2567 15.2267 -21.1045 -5.5976 -7.1250 0.0000 -0.0000 -8.5121 8.3734 7.2646 -0.0000 -0.0000 0.0000 -55.7096 34.5053 -98.3847 -8.2532 13.9624 -1.0123 0.0000 0.0000 21.1375 -21.6471 -19.6488 7.6013 7.1250 -0.0000 -0.0000 6.7512 -50.8716 -0.9805
10.2030 21.5716 -16.5734 -1.5835 -0.8550 11.9030 0.0000 0.0000 0.0000 -15.5059 -4.1736 -0.0297 0.2586 3.2717 9.0360 0.5353 -9.7829 -13.7814 0.4290 4.2032 11.6491 0.0000 0.0000 0.0000 19.1966 4.7663 4.8028 -0.0050 -0.4571 1.2560 -1.3050 0.7658 -21.3665 -1.0243 -6.4384 18.0618 1.9022 0.6668 -5.0629 -1.2360 0.8139 -5.3681 -2.3177 0.3213 -2.6504 -0.5361 -1.7134 -0.9932 2.2935 -2.5021 10.5694 0.7597 -1.1720 3.6320 0.0000 -0.0000 0.0000 64.0477 -36.7534 -81.7081 9.8730 -16.5407 -1.4386 -0.0000 -0.0000 8.5545 15.1220 -21.0483 -5.5435 -7.1250 0.0000 -0.0000 -8.5763 8.4428 7.3087 0.0000 -0.0000 0.0000 -56.0303 34.3774 -98.9252 -8.2385 13.9388 -1.0088 0.0000 0.0000 21.2786 -21.8386 -19.7591 7.7155 7.1250 -0.0000 -0.0000 6.5945 -51.0191 -0.9816
10.2092 21.6106 -16.5847 -1.6522 -0.8756 12.4655 0.0000 0.0000 0.0000 -15.3589 -4.3643 -1.1253 0.2995 3.5187 9.7264 0.4985 -9.4858 -13.3088 0.4413 4.2625 11.8164 0.0000 0.0000 0.0000 19.0878 4.8438 3.8894 -0.0079 -0.5727 1.5738 -1.2321 0.8414 -20.7291 -1.1128 -6.7017 18.8346 1.9705 0.6507 -4.6439 -1.1774 0.7983 -5.0773 -2.2982 0.3161 -2.5826 -0.6764 -1.6891 -1.4726 2.3604 -2.4743 10.7978 0.8045 -1.1559 3.8083 -0.0000 -0.0000 0.0000 63.9114 -36.4676 -82.0081 9.8318 -16.4760 -1.4269 -0.0000 -0.0000 8.9455 14.9832 -21.0272 -5.4853 -7.1250 0.0000 -0.0000 -8.6637 8.4809 7.3784 -0.0000 -0.0000 0.0000 -56.2796 34.2584 -99.2302 -8.2430 13.9460 -1.0099 0.0000 0.0000 21.1250 -21.9789 -19.8927 7.8194 7.1250 -0.0000 -0.0000 6.4951 -51.1829 -0.9928
10.2170 21.6511 -16.6004 -1.7109 -0.8851 13.0799 0.0000 0.0000 0.0000 -15.2117 -4.5836 -2.3444 0.3493 3.7973 10.5071 0.4620 -9.2017 -12.8288 0.4502 4.3046 11.9352 0.0000 0.0000 0.0000 18.9467 4.8971 2.8496 -0.0120 -0.7082 1.9463 -1.1559 0.9124 -20.0454 -1.1946 -6.9353 19.5238 2.0469 0.6440 -4.2317 -1.1414 0.7950 -4.8193 -2.3064 0.3159 -2.5448 -0.7767 -1.6688 -1.7800 2.4370 -2.4528 10.9777 0.8469 -1.1424 3.9349 -0.0000 0.0000 0.0000 63.7629 -36.2792 -82.3213 9.8015 -16.4284 -1.4183 -0.0000 -0.0000 9.3440 14.8179 -21.0406 -5.4257 -7.1250 0.0000 -0.0000 -8.7694 8.4871 7.4695 -0.0000 0.0000 0.0000 -56.4052 34.1815 -99.2305 -8.2719 13.9927 -1.0169 0.0000 0.0000 20.6964 -22.0461 -20.0622 7.9088 7.1250 -0.0000 -0.0000 6.4789 -51.3717 -1.0204
10.2262 21.6927 -16.6209 -1.7505 -0.8602 13.7404 0.0000 0.0000 0.0000 -15.0678 -4.8522 -3.6835 0.4098 4.1096 11.3851 0.4247 -8.9283 -12.3272 0.4595 4.3483 12.0587 0.0000 0.0000 0.0000 18.7719 4.9301 1.6954 -0.0179 -0.8627 2.3712 -1.0788 0.9783 -19.3335 -1.2809 -7.1723 20.2268 2.1287 0.6382 -3.8146 -1.1306 0.7931 -4.5941 -2.3442 0.3150 -2.5438 -0.8129 -1.6451 -1.9063 2.4881 -2.4252 11.0619 0.8709 -1.1262 3.9907 0.0000 -0.0000 0.0000 63.6035 -36.1876 -82.5867 9.7879 -16.4072 -1.4145 -0.0000 -0.0000 9.6729 14.6927 -21.0798 -5.3875 -7.1250 0.0000 -0.0000 -8.8506 8.4623 7.5448 0.0000 -0.0000 0.0000 -56.4183 34.1465 -98.9956 -8.3183 14.0676 -1.0281 0.0000 0.0000 20.0973 -22.0684 -20.2611 7.9918 7.1250 -0.0000 -0.0000 6.5166 -51.5837 -1.0604
10.2365 21.7360 -16.6466 -1.7646 -0.7892 14.4260 0.0000 0.0000 0.0000 -14.9279 -5.1703 -5.1221 0.4822 4.4530 12.3547 0.3851 -8.6826 -11.7885 0.4776 4.4321 12.2956 0.0000 0.0000 0.0000 18.5693 4.9670 0.4673 -0.0257 -1.0353 2.8460 -1.0064 1.0332 -18.6447 -1.3806 -7.4350 21.0108 2.2104 0.6283 -3.3590 -1.1473 0.7867 -4.3968 -2.4110 0.3106 -2.5938 -0.7850 -1.6348 -1.8573 2.5186 -2.4150 11.0544 0.8768 -1.1189 3.9784 0.0000 0.0000 0.0000 63.4538 -36.1809 -82.7605 9.7850 -16.4026 -1.4136 -0.0000 -0.0000 9.8574 14.7066 -21.1222 -5.4031 -7.1250 0.0000 -0.0000 -8.8435 8.4179 7.5465 0.0000 0.0000 0.0000 -56.3220 34.1452 -98.5535 -8.3753 14.1594 -1.0420 0.0000 0.0000 19.3880 -22.0841 -20.4841 8.0812 7.1250 -0.0000 -0.0000 6.5692 -51.8195 -1.1071
10.2470 21.7813 -16.6774 -1.7546 -0.6767 15.1080 0.0000 0.0000 0.0000 -14.7878 -5.5104 -6.6310 0.5670 4.8226 13.4032 0.3423 -8.4804 -11.2005 0.5092 4.5741 12.6978 0.0000 0.0000 0.0000 18.3494 5.0086 -0.8012 -0.0362 -1.2286 3.3779 -0.9412 1.0805 -18.0044 -1.4884 -7.7076 21.8293 2.2831 0.6078 -2.8299 -1.1778 0.7682 -4.2104 -2.4880 0.2993 -2.6975 -0.7124 -1.6418 -1.6830 2.5189 -2.4253 10.9609 0.8645 -1.1226 3.9100 -0.0000 -0.0000 0.0000 63.3058 -36.2178 -82.8495 9.7822 -16.3982 -1.4129 -0.0000 -0.0000 9.9642 14.8127 -21.1531 -5.4512 -7.1250 0.0000 -0.0000 -8.7773 8.3740 7.4963 -0.0000 -0.0000 0.0000 -56.1684 34.1756 -98.0200 -8.4347 14.2550 -1.0566 0.0000 0.0000 18.6734 -22.1231 -20.7264 8.1871 7.1250 -0.0000 -0.0000 6.6054 -52.0797 -1.1555
10.2569 21.8288 -16.7123 -1.7319 -0.5473 15.7568 0.0000 0.0000 0.0000 -14.6415 -5.8365 -8.1711 0.6647 5.2139 14.5198 0.2977 -8.3160 -10.5734 0.5516 4.7578 13.2190 0.0000 0.0000 0.0000 18.1268 5.0425 -2.0854 -0.0503 -1.4478 3.9817 -0.8829 1.1441 -17.4077 -1.5949 -7.9656 22.6098 2.3436 0.5749 -2.2035 -1.2069 0.7356 -4.0076 -2.5578 0.2810 -2.8405 -0.6209 -1.6612 -1.4772 2.4891 -2.4486 10.8120 0.8385 -1.1339 3.8153 0.0000 0.0000 0.0000 63.1471 -36.2350 -82.8648 9.7666 -16.3737 -1.4085 -0.0000 -0.0000 10.0864 14.9262 -21.1814 -5.5016 -7.1250 0.0000 -0.0000 -8.7064 8.3318 7.4417 0.0000 0.0000 0.0000 -56.0225 34.2315 -97.5595 -8.4889 14.3422 -1.0700 0.0000 0.0000 18.0804 -22.1772 -20.9463 8.2910 7.1250 -0.0000 -0.0000 6.6206 -52.3192 -1.1971
10.2662 21.8778 -16.7503 -1.7116 -0.4289 16.3585 0.0000 0.0000 0.0000 -14.4831 -6.1234 -9.7185 0.7763 5.6255 15.7016 0.2544 -8.1824 -9.9410 0.5960 4.9425 13.7446 0.0000 0.0000 0.0000 17.9163 5.0564 -3.3771 -0.0691 -1.6960 4.6662 -0.8286 1.2285 -16.8288 -1.6868 -8.1808 23.2646 2.3968 0.5336 -1.4763 -1.2252 0.6945 -3.7676 -2.6126 0.2589 -3.0029 -0.5257 -1.6841 -1.3357 2.4273 -2.4728 10.6458 0.8011 -1.1466 3.7268 -0.0000 0.0000 0.0000 62.9686 -36.1947 -82.8511 9.7373 -16.3276 -1.4002 -0.0000 -0.0000 10.2988 14.9464 -21.2061 -5.5154 -7.1250 0.0000 -0.0000 -8.6947 8.3044 7.4362 -0.0000 0.0000 0.0000 -55.9234 34.2934 -97.2259 -8.5339 14.4146 -1.0812 0.0000 0.0000 17.6242 -22.2193 -21.0934 8.3632 7.1250 -0.0000 -0.0000 6.6252 -52.4806 -1.2242
10.2745 21.9274 -16.7909 -1.7032 -0.3688 16.9209 0.0000 0.0000 0.0000 -14.3164 -6.3521 -11.2751 0.9032 6.0567 16.9490 0.2164 -8.0606 -9.3549 0.6295 5.0768 14.1276 0.0000 0.0000 0.0000 17.7162 5.0579 -4.7009 -0.0942 -1.9794 5.4487 -0.7751 1.3444 -16.2324 -1.7605 -8.3482 23.7769 2.4329 0.4974 -0.6615 -1.2284 0.6629 -3.4802 -2.6425 0.2428 -3.1662 -0.4421 -1.7020 -1.3237 2.3340 -2.4871 10.4814 0.7550 -1.1552 3.6635 0.0000 0.0000 0.0000 62.7587 -36.0952 -82.8981 9.7034 -16.2743 -1.3907 -0.0000 -0.0000 10.7056 14.7907 -21.2275 -5.4609 -7.1250 0.0000 -0.0000 -8.7944 8.3015 7.5241 0.0000 0.0000 0.0000 -55.9300 34.3490 -97.1777 -8.5540 14.4468 -1.0862 0.0000 0.0000 17.4106 -22.2243 -21.1382 8.3819 7.1250 -0.0000 -0.0000 6.6345 -52.5281 -1.2336
10.2817 21.9754 -16.8341 -1.7095 -0.4079 17.4772 0.0000 0.0000 0.0000 -14.1457 -6.5154 -12.8790 1.0478 6.5094 18.2699 0.1861 -7.9261 -8.8507 0.6354 5.1000 14.1939 0.0000 0.0000 0.0000 17.5151 5.0670 -6.1108 -0.1280 -2.3058 6.3516 -0.7204 1.4965 -15.5961 -1.8052 -8.4480 24.0833 2.4349 0.4806 0.2069 -1.2204 0.6581 -3.1530 -2.6423 0.2419 -3.3178 -0.3889 -1.7036 -1.4384 2.2372 -2.4782 10.3011 0.7132 -1.1528 3.6194 0.0000 0.0000 0.0000 62.5257 -35.9561 -83.0496 9.6686 -16.2195 -1.3809 -0.0000 -0.0000 11.2969 14.5306 -21.2452 -5.3654 -7.1250 0.0000 -0.0000 -8.9602 8.3147 7.6672 0.0000 0.0000 0.0000 -56.0609 34.3949 -97.4657 -8.5447 14.4319 -1.0838 0.0000 0.0000 17.4479 -22.1838 -21.1105 8.3549 7.1250 -0.0000 -0.0000 6.6666 -52.4919 -1.2337
